<svg width="27" height="20" viewBox="0 0 27 20" fill="none" xmlns="http://www.w3.org/2000/svg">
<path d="M6.6244 10.8188L6.67191 19.0464C6.86604 19.0731 7.06428 19.0866 7.26589 19.0854L7.85963 19.082L7.81163 10.7696L7.21789 10.773C7.01628 10.7742 6.81821 10.79 6.6244 10.8188ZM17.3115 10.7147L17.3595 19.027L17.9532 19.0236C18.1549 19.0224 18.3529 19.0066 18.5467 18.9778L18.4992 10.7503C18.3051 10.7236 18.1069 10.7101 17.9052 10.7113L17.3115 10.7147ZM22.0545 9.49981C22.0242 4.25322 17.7465 0.0245886 12.4998 0.0548849C7.25322 0.0851812 3.02456 4.36294 3.05486 9.60953C3.06144 10.7491 3.26865 11.8405 3.6424 12.8509C3.28466 13.469 3.08129 14.1873 3.08571 14.9532C3.09529 16.6111 4.07443 18.0364 5.48236 18.6954L5.43898 11.1835C5.06658 11.363 4.72552 11.5969 4.42508 11.8741C4.31077 11.3326 4.24909 10.7715 4.24576 10.1964C4.21926 5.60564 7.91933 1.8626 12.5101 1.83609C17.101 1.80959 20.844 5.50964 20.8705 10.1004C20.8738 10.6755 20.8186 11.2372 20.7106 11.78C20.4069 11.5064 20.0633 11.2764 19.6887 11.1012L19.7321 18.6131C21.1324 17.9379 22.095 16.5013 22.0854 14.8434C22.081 14.0776 21.8693 13.3617 21.5045 12.7478C21.8665 11.7331 22.0611 10.6394 22.0545 9.49981Z" fill="#F4F4FF"/>
</svg>
