<svg width="38" height="24" viewBox="0 0 38 24" fill="none" xmlns="http://www.w3.org/2000/svg">
<path d="M15.3338 6.36685L18.9559 4.97086C19.5642 4.69167 20.0066 3.68655 20.0066 2.45809V0.587463L15.3338 2.23872C15.2232 2.29456 15.3338 2.7652 15.3338 3.01648V6.36685Z" fill="#23A6FF"/>
<path d="M36.9261 16.7107C37.3915 16.8752 37.7018 17.2699 37.7639 17.7963C37.7949 18.1252 37.7018 18.4871 37.5777 18.7503C37.3605 19.0134 37.0502 19.1779 36.7399 19.2108L31.2991 19.6868L30.5203 18.8612L36.5847 18.2239C36.6468 18.2239 36.7088 18.191 36.7709 18.1252C36.8019 18.0594 36.833 17.9936 36.833 17.8621C36.833 17.7305 36.7088 17.5989 36.5537 17.5989L30.5204 18.2544V17.2968L35.9952 16.7107V16.0199C35.9952 14.1119 34.5367 12.5658 32.737 12.5658H27.3687C25.2276 12.5658 23.4589 10.8552 23.2107 8.61827L22.497 1.7101C22.4659 1.47983 22.3728 1.28245 22.1867 1.15087C22.0005 1.01928 21.7833 0.986386 21.5661 1.01928L20.7903 1.18376V2.69698C20.7903 4.14441 19.7973 5.42735 18.3699 5.75631L15.6246 6.33302L15.5674 5.3387L18.2148 4.76943C19.2078 4.53916 19.8904 3.68386 19.8904 2.66409V1.38114L15.3338 2.42018L15.0437 1.49497L21.4419 0.0324003C21.9074 -0.0662879 22.4039 0.0652963 22.7762 0.361361C23.1486 0.657425 23.3968 1.11797 23.4589 1.61141L24.1726 8.51958C24.3588 10.2631 25.7241 11.5789 27.3998 11.5789H32.737C35.0642 11.5789 36.9261 13.5856 36.9261 16.0199V16.7107Z" fill="#23A6FF"/>
<path d="M20.7593 8.61828C20.7903 8.88144 20.9765 9.04592 21.2248 9.04592C21.2558 9.04592 21.2558 9.04592 21.2868 9.04592C21.5351 9.01303 21.7212 8.78276 21.6902 8.48669L21.4109 5.8879C21.3799 5.62473 21.1627 5.42736 20.8834 5.46025C20.6352 5.49315 20.449 5.72342 20.48 6.01949L20.7593 8.61828Z" fill="#23A6FF"/>
<path d="M31.9612 20.3621C31.8992 19.77 31.5268 19.3095 31.0303 19.1779V18.3226C31.0303 15.5593 28.9203 13.3224 26.3137 13.3224H20.1697C18.2458 13.3224 16.6012 11.7763 16.415 9.7367L15.5772 1.84164C15.5152 1.28241 15.2359 0.78897 14.8325 0.46001C14.3981 0.131049 13.8706 -0.000534497 13.343 0.0981537L1.95491 2.69694C1.48946 2.79563 1.14812 3.25617 1.14812 3.78251V19.3423H1.024C0.465455 19.3423 0 19.8358 0 20.4279V22.2372C0 22.8293 0.465455 23.3228 1.024 23.3228H11.264C11.7295 23.3228 12.1329 22.9609 12.2259 22.5004L15.7634 23.0925C16.8805 23.257 18.0286 23.257 19.1457 23.1583L30.72 21.9411C31.0613 21.9082 31.4027 21.7109 31.6199 21.4148C31.8992 21.1187 31.9923 20.7569 31.9612 20.3621ZM2.14109 3.65093L11.6364 1.47979V3.0588C11.6364 4.27595 10.8296 5.26284 9.65043 5.526L2.07903 7.13791V3.74962C2.07903 3.71672 2.11006 3.65093 2.14109 3.65093ZM2.07903 11.2828H4.43734C4.68558 11.2828 4.90279 11.0525 4.90279 10.7894C4.90279 10.5262 4.68558 10.2959 4.43734 10.2959H2.07903V8.12479L9.86764 6.47999C11.4812 6.08524 12.5983 4.67071 12.5983 3.0259V1.24952L13.5602 1.01924C13.8395 0.953451 14.0878 1.01924 14.305 1.18372C14.5222 1.3482 14.6463 1.61137 14.6773 1.87454L15.5152 9.7696C15.7944 12.3026 17.8114 14.2106 20.2007 14.2106H26.3137C28.3927 14.2106 30.0994 16.0198 30.0994 18.2239V19.0792L19.1147 20.2634C18.0596 20.3621 16.9736 20.3621 15.9186 20.1976L9.06085 19.2437C9.02982 19.2437 9.02982 19.2437 8.99879 19.2437H2.07903V11.2828ZM30.9372 20.7898C30.8752 20.8885 30.7821 20.9214 30.658 20.9543L19.0836 22.1714C18.0286 22.2701 16.9426 22.2701 15.9186 22.1056L11.8846 21.4477C11.7605 21.4148 11.6053 21.4806 11.5122 21.5464C11.4192 21.6451 11.3571 21.7767 11.3571 21.9082V22.2372C11.3571 22.2701 11.3261 22.303 11.295 22.303H1.05503C0.99297 22.303 0.96194 22.2701 0.96194 22.2043V20.395C0.96194 20.3292 0.99297 20.2963 1.05503 20.2963H8.96776L15.7944 21.2503C16.9115 21.4148 18.0907 21.4148 19.2078 21.3161L30.5959 20.099C30.8131 20.0661 30.9993 20.2305 31.0303 20.4608C31.0303 20.5924 30.9993 20.6911 30.9372 20.7898Z" fill="#23A6FF"/>
<path d="M1.3153 8.22251L9.44524 6.57771C10.8106 6.24875 11.8035 5.06449 11.8035 3.61706V1.41302L1.74972 3.68285C1.50148 3.74864 1.3153 3.97892 1.3153 4.27498V8.22251Z" fill="#23A6FF"/>
<path d="M11.7225 10.3541C11.7535 10.6173 11.9397 10.7818 12.1879 10.7818C12.219 10.7818 12.219 10.7818 12.25 10.7818C12.4982 10.7489 12.6844 10.5186 12.6534 10.2225L12.3741 7.62374C12.3431 7.36057 12.1259 7.1632 11.8466 7.19609C11.5984 7.22899 11.4122 7.45926 11.4432 7.75533L11.7225 10.3541Z" fill="#23A6FF"/>
</svg>
