<svg width="23" height="24" viewBox="0 0 23 24" fill="none" xmlns="http://www.w3.org/2000/svg">
<path d="M20.6437 17.3902C21.5675 15.6778 22.0855 13.722 22.0855 11.6444C22.0855 9.5669 21.5675 7.57993 20.6437 5.89867C20.6143 5.83642 20.585 5.8081 20.5583 5.77696C18.6546 2.32379 15.109 0 11.0427 0C7.00584 0 3.46019 2.32379 1.52719 5.77692C1.49781 5.80806 1.46846 5.86748 1.44176 5.89863C0.517952 7.57989 0 9.53572 0 11.6444C0 18.095 4.93132 23.3228 11.016 23.3228C15.0529 23.3228 18.5986 20.999 20.5316 17.5459C20.585 17.4808 20.6143 17.4496 20.6437 17.3902ZM1.12137 12.1935H4.84322C4.90194 13.7219 5.19032 15.2192 5.64955 16.626H2.27475C1.61261 15.2787 1.20947 13.7814 1.12137 12.1935ZM2.27475 6.66H5.64951C5.15823 8.06673 4.89927 9.53289 4.84318 11.0613H1.12137C1.20947 9.47064 1.61261 7.97334 2.27475 6.66ZM20.9908 11.0613H17.3277C17.269 9.53289 16.9806 8.06673 16.5214 6.66H19.8374C20.4996 7.97334 20.9027 9.47064 20.9908 11.0613ZM16.2597 11.0613H11.5874V6.66H15.3653C15.886 8.03559 16.2037 9.50178 16.2597 11.0613ZM11.5901 5.52783V1.24821C12.9731 2.43984 14.0998 3.87768 14.8767 5.49669H11.5901V5.52783ZM10.5221 1.31047V5.49952H7.29154C8.07112 3.90882 9.16845 2.50209 10.5221 1.31047ZM10.5221 6.66V11.0613H5.9085C5.96723 9.53289 6.28231 8.03559 6.80293 6.66H10.5221ZM5.9085 12.1935H10.5221V16.626H6.80293C6.28498 15.2192 5.96723 13.7219 5.9085 12.1935ZM10.5221 17.7553V21.9444C9.16578 20.7839 8.07112 19.346 7.29154 17.7553H10.5221ZM11.5901 22.0038V17.7553H14.8767C14.0704 19.3772 12.9731 20.8122 11.5901 22.0038ZM11.5901 16.626V12.1935H16.2624C16.2037 13.7531 15.8886 15.2504 15.368 16.626H11.5901ZM17.3277 12.1935H20.9908C20.9054 13.7842 20.4996 15.3126 19.8081 16.626H16.5214C16.9806 15.2192 17.269 13.7219 17.3277 12.1935ZM19.1726 5.52783H16.0595C15.3973 3.99939 14.4442 2.56155 13.2908 1.36993C15.683 1.953 17.7602 3.4503 19.1726 5.52783ZM8.90683 1.34161C7.72406 2.56434 6.80293 3.97108 6.10878 5.53067H2.93956C4.35194 3.41915 6.45584 1.89071 8.90683 1.34161ZM2.93956 17.7553H6.08203C6.77355 19.3149 7.69732 20.7216 8.88008 21.9444C6.45584 21.3641 4.35194 19.8357 2.93956 17.7553ZM13.2908 21.9133C14.4442 20.6905 15.3947 19.2838 16.0595 17.7554H19.1459C17.7602 19.8046 15.683 21.333 13.2908 21.9133Z" fill="#23A6FF"/>
</svg>
