<svg width="28" height="24" viewBox="0 0 28 24" fill="none" xmlns="http://www.w3.org/2000/svg">
<path d="M16 19.7592L15 20.1424V4.62366L16 4.24048V19.7592Z" fill="#23A6FF" fill-opacity="0.5"/>
<path d="M16.1789 20.2261L16.5 20.1031V19.7592V4.24048V3.51344L15.8211 3.77358L14.8211 4.15676L14.5 4.2798V4.62366V20.1424V20.8694L15.1789 20.6093L16.1789 20.2261Z" stroke="#23A6FF" stroke-opacity="0.5"/>
<path d="M5 19.7592L4 20.1424V4.62366L5 4.24048V19.7592Z" fill="#23A6FF" fill-opacity="0.5"/>
<path d="M5.17891 20.2261L5.5 20.1031V19.7592V4.24048V3.51344L4.8211 3.77358L3.8211 4.15676L3.5 4.2798V4.62366V20.1424V20.8694L4.17891 20.6093L5.17891 20.2261Z" stroke="#23A6FF" stroke-opacity="0.5"/>
<path d="M23.1564 13.6416C22.9271 13.6416 22.7395 13.8396 22.7395 14.0817V22.2446L17.7581 20.1764V2.64027C17.7581 2.57426 17.7372 2.53025 17.7164 2.46425C17.633 2.24422 17.3829 2.13421 17.1745 2.22222L11.7345 4.5985L9.17084 3.54238C8.96241 3.45437 8.73314 3.56438 8.64977 3.78441C8.56639 4.00443 8.67061 4.26846 8.87903 4.35647L11.3176 5.3466V22.2226L6.54464 20.1544V2.64027C6.54464 2.59626 6.54464 2.53025 6.5238 2.48625C6.44043 2.26622 6.19031 2.15621 5.98189 2.24422L0.270956 4.5325C0.104214 4.5985 0 4.75252 0 4.95055V22.7727C0 23.0147 0.187585 23.2128 0.416856 23.2128C0.458542 23.2128 0.52107 23.2128 0.562756 23.1908L6.12779 20.9465L11.5678 23.3008C11.5678 23.3008 11.5886 23.3008 11.6094 23.3008C11.6303 23.3008 11.6303 23.3228 11.6511 23.3228C11.672 23.3228 11.7137 23.3228 11.7345 23.3228C11.797 23.3228 11.8387 23.3228 11.9012 23.3008L17.3621 20.9465L23.0105 23.3008C23.0521 23.3228 23.1147 23.3228 23.1564 23.3228C23.3856 23.3228 23.5732 23.1248 23.5732 22.8827V14.0817C23.5732 13.8396 23.3856 13.6416 23.1564 13.6416ZM5.71093 20.1544L0.833712 22.1346V5.25858L5.71093 3.27834V20.1544ZM16.9244 20.1544L12.1514 22.2226V5.3466L16.9244 3.30035V20.1544Z" fill="#23A6FF"/>
<path d="M1.04337 13.7099C0.824337 13.7099 0.645126 13.5408 0.645126 13.3341C0.645126 13.1837 0.744688 13.0334 0.903986 12.977L6.35996 11.0037C6.45952 10.9661 6.55908 10.9661 6.63873 11.0037L11.9553 12.9206L16.8737 11.1916C17.0728 11.1164 17.3117 11.2104 17.3914 11.4171C17.471 11.605 17.3715 11.8306 17.1524 11.9057L12.0947 13.6911C11.9951 13.7287 11.8956 13.7287 11.8159 13.6911L6.49934 11.7554L1.18276 13.6911C1.14293 13.7099 1.0832 13.7099 1.04337 13.7099Z" fill="#23A6FF"/>
<path d="M26.1785 1.25415C25.4699 0.440053 24.4277 0 23.1772 0H23.1563H23.1355C21.9058 0 20.8219 0.440053 20.1341 1.25415C19.2379 2.28828 18.7793 4.18051 19.8006 6.07274C20.0924 6.5788 20.4468 7.04086 20.8428 7.4369C21.1346 7.74494 21.4055 8.07498 21.6348 8.40502C22.2601 9.37314 22.6353 10.4953 22.7186 11.6834C22.7395 11.9034 22.9062 12.1015 23.1355 12.1015H23.1563C23.3648 12.1015 23.5523 11.9255 23.5732 11.7054C23.6566 10.5393 24.0317 9.41714 24.657 8.42702C24.8863 8.07498 25.1572 7.74494 25.449 7.45891C25.845 7.04086 26.1994 6.5788 26.4912 6.09474C27.5333 4.15851 27.0956 2.26628 26.1785 1.25415ZM25.8034 5.63269C25.5532 6.07274 25.2406 6.46879 24.8863 6.84283C24.5736 7.17287 24.2818 7.54692 24.0109 7.94297C23.6566 8.47103 23.3856 9.0651 23.1772 9.65917C22.9687 9.0431 22.6978 8.47103 22.3435 7.94297C22.0725 7.56892 21.8015 7.19488 21.4681 6.86484C21.1137 6.51279 20.8011 6.09474 20.5301 5.65469C19.9674 4.59856 19.7798 2.94836 20.7594 1.84822C21.4889 1.01212 22.5727 0.880107 23.1563 0.880107H23.1772H23.198C23.7816 0.880107 24.8446 1.01212 25.5949 1.82622C26.5329 2.92636 26.3661 4.57656 25.8034 5.63269Z" fill="#23A6FF"/>
<path d="M23.1564 5.5006C22.3435 5.5006 21.6974 4.81852 21.6974 3.96041C21.6974 3.10231 22.3435 2.42023 23.1564 2.42023C23.9692 2.42023 24.6154 3.10231 24.6154 3.96041C24.6154 4.81852 23.9692 5.5006 23.1564 5.5006ZM23.1564 3.30033C22.802 3.30033 22.5311 3.58637 22.5311 3.96041C22.5311 4.33446 22.802 4.62049 23.1564 4.62049C23.5107 4.62049 23.7817 4.33446 23.7817 3.96041C23.7817 3.58637 23.5107 3.30033 23.1564 3.30033Z" fill="#23A6FF"/>
</svg>
