<svg width="29" height="23" viewBox="0 0 29 23" fill="none" xmlns="http://www.w3.org/2000/svg">
<g clip-path="url(#clip0_416_12)">
<path d="M2.41667 0.871826H26.5833C27.6448 0.871826 28.5 1.72513 28.5 2.76176V19.4913C28.5 20.528 27.6448 21.3813 26.5833 21.3813H2.41667C1.35524 21.3813 0.5 20.528 0.5 19.4913V2.76176C0.5 1.72513 1.35524 0.871826 2.41667 0.871826Z" stroke="#23A6FF"/>
<path d="M24.875 7.89628V14.324C23.1558 14.7326 21.7968 16.0737 21.3808 17.7799H7.61916C7.20322 16.0737 5.84419 14.7326 4.125 14.324V7.89628C5.84419 7.48765 7.20322 6.14658 7.61916 4.44031H21.3808C21.7968 6.14658 23.1558 7.48765 24.875 7.89628Z" stroke="#23A6FF"/>
<path d="M18.8334 11.1101C18.8334 13.4686 16.8986 15.39 14.5001 15.39C12.1016 15.39 10.1667 13.4686 10.1667 11.1101C10.1667 8.7516 12.1016 6.8302 14.5001 6.8302C16.8986 6.8302 18.8334 8.7516 18.8334 11.1101Z" stroke="#23A6FF"/>
</g>
<defs>
<clipPath id="clip0_416_12">
<rect width="29" height="22.0096" fill="white" transform="translate(0 0.105225)"/>
</clipPath>
</defs>
</svg>
