<svg width="22" height="26" viewBox="0 0 22 26" fill="none" xmlns="http://www.w3.org/2000/svg">
<path d="M8.02083 4.13906C7.48573 4.13906 7.0274 3.93576 6.64583 3.53037C6.4615 3.34135 6.31557 3.11421 6.21703 2.86296C6.1185 2.61172 6.06945 2.34169 6.07292 2.06953C6.07292 1.50102 6.26427 1.01407 6.64583 0.608685C7.0274 0.202083 7.48573 0 8.02083 0C8.55594 0 9.01427 0.202083 9.39583 0.608685C9.7774 1.01407 9.96875 1.50102 9.96875 2.06953C9.96875 2.63682 9.7774 3.12377 9.39583 3.53037C9.01427 3.93576 8.55594 4.13906 8.02083 4.13906ZM2.01845 25.1996C1.65365 25.1996 1.37798 24.8691 1.44344 24.5102L4.18758 9.46433C4.33153 8.67507 3.53418 8.04615 2.80016 8.36998L1.74219 8.83674C1.37972 8.99665 1.14583 9.35548 1.14583 9.75166V12.4529C1.14583 12.7694 0.88933 13.0259 0.572917 13.0259C0.256503 13.0259 0 12.7694 0 12.4529V8.93276C0 8.53514 0.235565 8.1753 0.599982 8.01625L5.29948 5.96511C5.8151 5.74112 6.29292 5.68512 6.73177 5.79712C7.17062 5.90911 7.51437 6.18789 7.76302 6.63467L8.88021 8.58246C9.37635 9.43462 10.0547 10.1553 10.9141 10.7433C11.615 11.2229 12.373 11.534 13.1883 11.6767C13.5033 11.7318 13.75 11.9942 13.75 12.314C13.75 12.667 13.4518 12.9499 13.1027 12.8975C12.014 12.7341 11.0453 12.3255 10.1979 11.6709C9.91819 11.458 9.65034 11.2292 9.39547 10.9857C8.72575 10.3459 7.41941 10.6173 7.25355 11.5286L6.82285 13.895C6.76562 14.2094 6.86214 14.5323 7.08257 14.7637L8.89078 16.6622C9.06788 16.8482 9.16667 17.0951 9.16667 17.3519V24.6266C9.16667 24.9431 8.91016 25.1996 8.59375 25.1996C8.27734 25.1996 8.02083 24.9431 8.02083 24.6266V18.7029C8.02083 18.439 7.91656 18.1859 7.73073 17.9986L5.97395 16.2278C5.41372 15.6632 4.45041 15.9469 4.28572 16.7251L2.59028 24.7361C2.5331 25.0063 2.29461 25.1996 2.01845 25.1996ZM17.1875 25.443C16.9027 25.443 16.6719 25.2122 16.6719 24.9274V9.39985C16.6719 8.84757 16.2242 8.39985 15.6719 8.39985H13.375C12.8227 8.39985 12.375 7.95214 12.375 7.39985V1.60868C12.375 1.0564 12.8227 0.608685 13.375 0.608685H21C21.5523 0.608685 22 1.0564 22 1.60869V7.39985C22 7.95214 21.5523 8.39985 21 8.39985H18.7031C18.1508 8.39985 17.7031 8.84757 17.7031 9.39985V24.9274C17.7031 25.2122 17.4723 25.443 17.1875 25.443ZM17.4093 6.56601C17.6152 6.78476 17.9629 6.78476 18.1688 6.56601L19.4643 5.18966C19.8267 4.8046 19.8267 4.20394 19.4643 3.81888L18.1688 2.44253C17.9629 2.22378 17.6152 2.22378 17.4093 2.44253L17.3876 2.46561C17.2108 2.65344 17.2108 2.94646 17.3876 3.13429C17.6806 3.4456 17.4599 3.95645 17.0324 3.95645H14.6416C14.339 3.95645 14.0937 4.20172 14.0937 4.50427C14.0937 4.80682 14.339 5.05209 14.6416 5.05209H17.0324C17.4599 5.05209 17.6806 5.56294 17.3876 5.87425C17.2108 6.06208 17.2108 6.35509 17.3876 6.54293L17.4093 6.56601Z" fill="#23A6FF"/>
</svg>
