<svg width="27" height="19" viewBox="0 0 27 19" fill="none" xmlns="http://www.w3.org/2000/svg">
<path d="M18.501 9.5012H14.3753V4.68748C14.3753 4.3073 14.0672 4 13.6876 4C13.3081 4 13 4.3073 13 4.68748V10.1873C13 10.5675 13.3081 10.8748 13.6876 10.8748H18.501C18.8813 10.8748 19.1887 10.5675 19.1887 10.1873C19.1887 9.80919 18.8813 9.5012 18.501 9.5012Z" fill="#F4F4FF"/>
<path d="M23 9.5C23 14.7467 18.7467 19 13.5 19C8.25329 19 4 14.7467 4 9.5C4 4.25329 8.25329 0 13.5 0C18.7467 0 23 4.25329 23 9.5ZM4.95 9.5C4.95 14.222 8.77797 18.05 13.5 18.05C18.222 18.05 22.05 14.222 22.05 9.5C22.05 4.77797 18.222 0.95 13.5 0.95C8.77797 0.95 4.95 4.77797 4.95 9.5Z" fill="#F4F4FF"/>
</svg>
