<svg width="27" height="20" viewBox="0 0 27 20" fill="none" xmlns="http://www.w3.org/2000/svg">
<path d="M21.6 0.109436H5.4C2.42281 0.109436 0 2.43431 0 5.29125V13.9276C0 16.7845 2.42281 19.1094 5.4 19.1094H21.6C24.5772 19.1094 27 16.7845 27 13.9276V5.29125C27 2.43431 24.5772 0.109436 21.6 0.109436ZM25.8 13.9276C25.8 16.15 23.916 17.9579 21.6 17.9579H5.4C3.084 17.9579 1.2 16.15 1.2 13.9276V5.29125C1.2 3.06883 3.084 1.26095 5.4 1.26095H21.6C23.916 1.26095 25.8 3.06883 25.8 5.29125V13.9276ZM9.6 12.7837C9.6 13.5457 10.4181 14.0277 11.0846 13.6585L16.8141 10.4846C17.5013 10.104 17.5013 9.11592 16.8142 8.73518L11.0847 5.56056C10.4181 5.19125 9.6 5.67328 9.6 6.43526V12.7837ZM10.8 8.4298C10.8 7.66779 11.6182 7.18577 12.2847 7.55511L14.4142 8.73517C15.1014 9.11594 15.1013 10.104 14.4141 10.4846L12.2845 11.6642C11.618 12.0334 10.8 11.5513 10.8 10.7894V8.4298Z" fill="#F4F4FF"/>
</svg>
