<svg width="32" height="32" viewBox="0 0 32 32" fill="none" xmlns="http://www.w3.org/2000/svg">
<g clip-path="url(#clip0_66_795)">
<path d="M16 12C15.6044 12 15.2178 11.8827 14.8889 11.6629C14.56 11.4432 14.3036 11.1308 14.1522 10.7654C14.0009 10.3999 13.9613 9.99778 14.0384 9.60982C14.1156 9.22186 14.3061 8.86549 14.5858 8.58579C14.8655 8.30608 15.2219 8.1156 15.6098 8.03843C15.9978 7.96126 16.3999 8.00087 16.7654 8.15224C17.1308 8.30362 17.4432 8.55996 17.6629 8.88886C17.8827 9.21776 18 9.60444 18 10C18 10.5304 17.7893 11.0391 17.4142 11.4142C17.0391 11.7893 16.5304 12 16 12Z" fill="#3A0EA0"/>
<path d="M16 29C13.4288 29 10.9154 28.2376 8.77759 26.8091C6.63975 25.3807 4.97351 23.3503 3.98957 20.9749C3.00563 18.5995 2.74819 15.9856 3.2498 13.4638C3.75141 10.9421 4.98953 8.6257 6.80762 6.80762C8.6257 4.98953 10.9421 3.75141 13.4638 3.2498C15.9856 2.74819 18.5995 3.00563 20.9749 3.98957C23.3503 4.97351 25.3807 6.63975 26.8091 8.77759C28.2376 10.9154 29 13.4288 29 16C29 19.4478 27.6304 22.7544 25.1924 25.1924C22.7544 27.6304 19.4478 29 16 29ZM16 5.00001C13.8244 5.00001 11.6977 5.64514 9.88873 6.85384C8.07979 8.06254 6.66989 9.7805 5.83733 11.7905C5.00477 13.8005 4.78693 16.0122 5.21137 18.146C5.63581 20.2798 6.68345 22.2398 8.22183 23.7782C9.76021 25.3166 11.7202 26.3642 13.854 26.7886C15.9878 27.2131 18.1995 26.9952 20.2095 26.1627C22.2195 25.3301 23.9375 23.9202 25.1462 22.1113C26.3549 20.3023 27 18.1756 27 16C27 13.0826 25.8411 10.2847 23.7782 8.22183C21.7153 6.15893 18.9174 5.00001 16 5.00001Z" fill="white"/>
<path d="M16 24C15.4696 24 14.9609 23.7893 14.5858 23.4142C14.2107 23.0391 14 22.5304 14 22V16C14 15.4696 14.2107 14.9609 14.5858 14.5858C14.9609 14.2107 15.4696 14 16 14C16.5304 14 17.0391 14.2107 17.4142 14.5858C17.7893 14.9609 18 15.4696 18 16V22C18 22.5304 17.7893 23.0391 17.4142 23.4142C17.0391 23.7893 16.5304 24 16 24Z" fill="#3A0EA0"/>
</g>
<defs>
<clipPath id="clip0_66_795">
<rect width="32" height="32" fill="white"/>
</clipPath>
</defs>
</svg>
