<svg width="19" height="23" viewBox="0 0 19 23" fill="none" xmlns="http://www.w3.org/2000/svg">
<path fill-rule="evenodd" clip-rule="evenodd" d="M9.5 13C13.0899 13 16 10.0899 16 6.5C16 2.91015 13.0899 0 9.5 0C5.91015 0 3 2.91015 3 6.5C3 10.0899 5.91015 13 9.5 13ZM18.2769 19.5558C18.7543 20.6478 19 21.8181 19 23H9.5H0C0 21.8181 0.245725 20.6478 0.723144 19.5558C1.20056 18.4639 1.90033 17.4718 2.78249 16.636C3.66464 15.8003 4.71191 15.1374 5.86451 14.6851C7.0171 14.2328 8.25244 14 9.5 14C10.7476 14 11.9829 14.2328 13.1355 14.6851C14.2881 15.1374 15.3354 15.8003 16.2175 16.636C17.0997 17.4718 17.7994 18.4639 18.2769 19.5558Z" fill="white"/>
</svg>
